<svg width="392" height="33" viewBox="0 0 392 33" fill="none" xmlns="http://www.w3.org/2000/svg">
<line y1="19.3918" x2="392" y2="19.3918" stroke="#B7B7B7" stroke-width="0.5"/>
<rect x="114.081" y="0.807129" width="163.839" height="31.7838" fill="#EAEAEA"/>
<path d="M147.845 22.0474V21.2164L150.966 17.8002C151.332 17.4001 151.634 17.0523 151.871 16.7569C152.108 16.4583 152.283 16.1783 152.397 15.9167C152.514 15.652 152.572 15.375 152.572 15.0857C152.572 14.7533 152.492 14.4656 152.332 14.2224C152.175 13.9793 151.96 13.7916 151.686 13.6592C151.412 13.5269 151.104 13.4607 150.763 13.4607C150.4 13.4607 150.083 13.5361 149.812 13.6869C149.544 13.8346 149.336 14.0424 149.189 14.3101C149.044 14.5779 148.972 14.8918 148.972 15.2519H147.882C147.882 14.6979 148.01 14.2117 148.265 13.7931C148.521 13.3745 148.868 13.0483 149.309 12.8144C149.752 12.5805 150.249 12.4636 150.8 12.4636C151.354 12.4636 151.845 12.5805 152.272 12.8144C152.7 13.0483 153.036 13.3638 153.279 13.7608C153.522 14.1578 153.643 14.5994 153.643 15.0857C153.643 15.4335 153.58 15.7736 153.454 16.106C153.331 16.4353 153.116 16.803 152.808 17.2093C152.503 17.6125 152.08 18.1049 151.538 18.6866L149.415 20.9579V21.0317H153.81V22.0474H147.845ZM158.8 22.1766C158.104 22.1766 157.512 21.9873 157.023 21.6088C156.533 21.2272 156.159 20.6747 155.901 19.9515C155.642 19.2252 155.513 18.348 155.513 17.3201C155.513 16.2983 155.642 15.4258 155.901 14.7025C156.162 13.9762 156.538 13.4222 157.027 13.0406C157.52 12.6559 158.111 12.4636 158.8 12.4636C159.489 12.4636 160.079 12.6559 160.568 13.0406C161.061 13.4222 161.436 13.9762 161.695 14.7025C161.956 15.4258 162.087 16.2983 162.087 17.3201C162.087 18.348 161.958 19.2252 161.699 19.9515C161.441 20.6747 161.067 21.2272 160.577 21.6088C160.088 21.9873 159.496 22.1766 158.8 22.1766ZM158.8 21.161C159.489 21.161 160.025 20.8286 160.407 20.1638C160.788 19.4991 160.979 18.5512 160.979 17.3201C160.979 16.5014 160.891 15.8043 160.716 15.2288C160.544 14.6533 160.294 14.2147 159.968 13.9131C159.645 13.6115 159.256 13.4607 158.8 13.4607C158.117 13.4607 157.583 13.7977 157.198 14.4717C156.813 15.1427 156.621 16.0921 156.621 17.3201C156.621 18.1387 156.707 18.8343 156.88 19.4067C157.052 19.9792 157.3 20.4147 157.623 20.7132C157.949 21.0117 158.341 21.161 158.8 21.161ZM163.841 22.0474V21.2164L166.962 17.8002C167.328 17.4001 167.63 17.0523 167.867 16.7569C168.104 16.4583 168.279 16.1783 168.393 15.9167C168.51 15.652 168.568 15.375 168.568 15.0857C168.568 14.7533 168.488 14.4656 168.328 14.2224C168.171 13.9793 167.956 13.7916 167.682 13.6592C167.408 13.5269 167.1 13.4607 166.759 13.4607C166.396 13.4607 166.079 13.5361 165.808 13.6869C165.54 13.8346 165.332 14.0424 165.185 14.3101C165.04 14.5779 164.968 14.8918 164.968 15.2519H163.878C163.878 14.6979 164.006 14.2117 164.261 13.7931C164.517 13.3745 164.865 13.0483 165.305 12.8144C165.748 12.5805 166.245 12.4636 166.796 12.4636C167.35 12.4636 167.841 12.5805 168.268 12.8144C168.696 13.0483 169.032 13.3638 169.275 13.7608C169.518 14.1578 169.639 14.5994 169.639 15.0857C169.639 15.4335 169.576 15.7736 169.45 16.106C169.327 16.4353 169.112 16.803 168.804 17.2093C168.499 17.6125 168.076 18.1049 167.534 18.6866L165.411 20.9579V21.0317H169.806V22.0474H163.841ZM171.288 20.1084V19.1667L175.442 12.5928H176.126V14.0516H175.664L172.525 19.019V19.0928H178.12V20.1084H171.288ZM175.738 22.0474V19.8222V19.3837V12.5928H176.827V22.0474H175.738ZM188.101 11.3094H189.18V20.0194H188.101V11.3094ZM184.786 12.8434H188.504V13.7144H184.786V12.8434ZM181.666 21.9174H189.492V22.8014H181.666V21.9174ZM181.666 19.2654H182.745V22.3204H181.666V19.2654ZM180.197 12.1674H181.276V17.7054H180.197V12.1674ZM180.197 17.3674H181.081C182.758 17.3674 184.331 17.2764 186.164 16.9514L186.268 17.8484C184.383 18.1864 182.81 18.2644 181.081 18.2644H180.197V17.3674ZM184.786 15.0794H188.504V15.9634H184.786V15.0794ZM198.66 22.1766C198.05 22.1766 197.507 22.072 197.03 21.8627C196.556 21.6534 196.179 21.3626 195.899 20.9902C195.622 20.6147 195.471 20.1792 195.447 19.6837H196.61C196.635 19.9884 196.739 20.2516 196.924 20.4731C197.109 20.6917 197.35 20.8609 197.649 20.981C197.947 21.101 198.278 21.161 198.641 21.161C199.048 21.161 199.408 21.0902 199.722 20.9486C200.036 20.8071 200.282 20.6101 200.46 20.3577C200.639 20.1054 200.728 19.813 200.728 19.4806C200.728 19.1328 200.642 18.8266 200.469 18.5619C200.297 18.2942 200.045 18.0849 199.712 17.9341C199.38 17.7833 198.974 17.7079 198.494 17.7079H197.737V16.6922H198.494C198.869 16.6922 199.198 16.6245 199.482 16.4891C199.768 16.3537 199.991 16.1629 200.151 15.9167C200.314 15.6705 200.396 15.3812 200.396 15.0488C200.396 14.7287 200.325 14.4502 200.183 14.2132C200.042 13.9762 199.842 13.7916 199.583 13.6592C199.328 13.5269 199.026 13.4607 198.678 13.4607C198.352 13.4607 198.044 13.5207 197.755 13.6408C197.469 13.7577 197.235 13.9285 197.053 14.1532C196.872 14.3748 196.773 14.6425 196.758 14.9565H195.65C195.668 14.461 195.818 14.027 196.098 13.6546C196.378 13.2791 196.744 12.9868 197.196 12.7775C197.652 12.5682 198.152 12.4636 198.697 12.4636C199.282 12.4636 199.783 12.582 200.202 12.819C200.62 13.0529 200.942 13.3622 201.167 13.7469C201.391 14.1316 201.504 14.5471 201.504 14.9934C201.504 15.5258 201.364 15.9798 201.083 16.3552C200.806 16.7307 200.429 16.9908 199.952 17.1354V17.2093C200.55 17.3078 201.016 17.5617 201.351 17.971C201.687 18.3773 201.854 18.8805 201.854 19.4806C201.854 19.9946 201.714 20.4562 201.434 20.8655C201.157 21.2718 200.779 21.5919 200.299 21.8258C199.819 22.0597 199.272 22.1766 198.66 22.1766ZM206.56 16.1714H207.639V18.2644H206.56V16.1714ZM211.955 11.3094H213.034V18.2254H211.955V11.3094ZM203.505 16.5354L203.375 15.7294C205.637 15.7294 208.51 15.7164 211.019 15.4304L211.084 16.1324C208.51 16.5094 205.702 16.5354 203.505 16.5354ZM205.156 18.6544H213.034V21.0984H206.235V22.4244H205.182V20.3834H211.968V19.4344H205.156V18.6544ZM205.182 22.1514H213.424V22.9314H205.182V22.1514ZM209.615 16.8994H212.293V17.6014H209.615V16.8994ZM207.171 11.5304C208.913 11.5304 210.057 12.2064 210.057 13.2984C210.057 14.3904 208.913 15.0664 207.171 15.0664C205.416 15.0664 204.272 14.3904 204.272 13.2984C204.272 12.2064 205.416 11.5304 207.171 11.5304ZM207.171 12.2844C206.014 12.2844 205.273 12.6744 205.273 13.2984C205.273 13.9224 206.014 14.3124 207.171 14.3124C208.302 14.3124 209.043 13.9224 209.043 13.2984C209.043 12.6744 208.302 12.2844 207.171 12.2844ZM219.358 22.0474V21.2164L222.479 17.8002C222.845 17.4001 223.146 17.0523 223.383 16.7569C223.62 16.4583 223.796 16.1783 223.91 15.9167C224.027 15.652 224.085 15.375 224.085 15.0857C224.085 14.7533 224.005 14.4656 223.845 14.2224C223.688 13.9793 223.473 13.7916 223.199 13.6592C222.925 13.5269 222.617 13.4607 222.275 13.4607C221.912 13.4607 221.595 13.5361 221.324 13.6869C221.057 13.8346 220.849 14.0424 220.701 14.3101C220.557 14.5779 220.484 14.8918 220.484 15.2519H219.395C219.395 14.6979 219.522 14.2117 219.778 13.7931C220.033 13.3745 220.381 13.0483 220.821 12.8144C221.264 12.5805 221.761 12.4636 222.312 12.4636C222.866 12.4636 223.357 12.5805 223.785 12.8144C224.213 13.0483 224.548 13.3638 224.791 13.7608C225.035 14.1578 225.156 14.5994 225.156 15.0857C225.156 15.4335 225.093 15.7736 224.967 16.106C224.844 16.4353 224.628 16.803 224.321 17.2093C224.016 17.6125 223.593 18.1049 223.051 18.6866L220.927 20.9579V21.0317H225.322V22.0474H219.358ZM226.804 20.1084V19.1667L230.959 12.5928H231.642V14.0516H231.181L228.041 19.019V19.0928H233.637V20.1084H226.804ZM231.254 22.0474V19.8222V19.3837V12.5928H232.344V22.0474H231.254ZM238.327 11.7384C240.082 11.7384 241.369 12.8044 241.369 14.3514C241.369 15.8854 240.082 16.9514 238.327 16.9514C236.585 16.9514 235.298 15.8854 235.298 14.3514C235.298 12.8044 236.585 11.7384 238.327 11.7384ZM238.327 12.6224C237.196 12.6224 236.338 13.3374 236.338 14.3514C236.338 15.3654 237.196 16.0674 238.327 16.0674C239.471 16.0674 240.316 15.3654 240.316 14.3514C240.316 13.3374 239.471 12.6224 238.327 12.6224ZM243.579 11.3094H244.671V17.3284H243.579V11.3094ZM237.066 17.9004H244.671V20.7604H238.145V22.5284H237.092V19.9544H243.605V18.7714H237.066V17.9004ZM237.092 22.0474H245.061V22.9054H237.092V22.0474Z" fill="black"/>
</svg>
