<svg width="149" height="87" viewBox="0 0 149 87" fill="none" xmlns="http://www.w3.org/2000/svg">
<path d="M73.0938 38.4895H21.0938V31.9895H73.0938V38.4895ZM50.875 57.1458H42.9688V36.1145H50.875V57.1458ZM46.9375 2.08325C50.9792 2.08325 54.5729 2.6145 57.7188 3.677C60.8646 4.7395 63.3021 6.24992 65.0312 8.20825C66.7812 10.1666 67.6562 12.4374 67.6562 15.0208C67.6562 17.5624 66.7812 19.7916 65.0312 21.7083C63.3021 23.6041 60.8646 25.0728 57.7188 26.1145C54.5729 27.1562 50.9792 27.677 46.9375 27.677C42.8958 27.677 39.3125 27.1562 36.1875 26.1145C33.0625 25.0728 30.625 23.6041 28.875 21.7083C27.1458 19.7916 26.2812 17.5624 26.2812 15.0208C26.2812 12.4374 27.1458 10.1666 28.875 8.20825C30.625 6.24992 33.0625 4.7395 36.1875 3.677C39.3125 2.6145 42.8958 2.08325 46.9375 2.08325ZM46.9375 8.45825C44.375 8.47909 42.1562 8.7395 40.2812 9.2395C38.4271 9.71867 37 10.4583 36 11.4583C35 12.4583 34.5104 13.6458 34.5312 15.0208C34.5104 16.3541 35 17.4999 36 18.4583C37 19.4166 38.4271 20.1458 40.2812 20.6458C42.1562 21.1458 44.375 21.3958 46.9375 21.3958C49.5 21.3958 51.7188 21.1458 53.5938 20.6458C55.4688 20.1458 56.9062 19.4166 57.9062 18.4583C58.9271 17.4999 59.4375 16.3541 59.4375 15.0208C59.4375 13.6458 58.9375 12.4583 57.9375 11.4583C56.9375 10.4583 55.4896 9.71867 53.5938 9.2395C51.7188 8.7395 49.5 8.47909 46.9375 8.45825ZM118.781 14.6145H101.906V8.20825H118.781V14.6145ZM118.781 28.3645H101.906V21.9895H118.781V28.3645ZM123.875 41.8645H115.938V0.270752H123.875V41.8645ZM125.25 56.1145H86.125V49.677H125.25V56.1145ZM94.125 52.9583H86.125V37.6458H94.125V52.9583ZM91.8125 3.552C94.5625 3.552 97.0833 4.18742 99.375 5.45825C101.688 6.72909 103.51 8.4895 104.844 10.7395C106.177 12.9895 106.854 15.5208 106.875 18.3333C106.854 21.1041 106.167 23.6041 104.812 25.8333C103.479 28.0624 101.667 29.8228 99.375 31.1145C97.0833 32.3853 94.5625 33.0208 91.8125 33.0208C88.9583 33.0208 86.375 32.3853 84.0625 31.1145C81.7708 29.8228 79.9583 28.0624 78.625 25.8333C77.3125 23.6041 76.6562 21.1041 76.6562 18.3333C76.6562 15.5208 77.3125 12.9895 78.625 10.7395C79.9583 8.4895 81.7708 6.72909 84.0625 5.45825C86.375 4.18742 88.9583 3.552 91.8125 3.552ZM91.8125 10.6458C90.3333 10.6249 89.0208 10.927 87.875 11.552C86.7292 12.177 85.8333 13.0728 85.1875 14.2395C84.5417 15.4062 84.2188 16.7708 84.2188 18.3333C84.2188 19.8749 84.5417 21.2187 85.1875 22.3645C85.8333 23.5103 86.7292 24.3958 87.875 25.0208C89.0208 25.6249 90.3333 25.9374 91.8125 25.9583C93.2292 25.9374 94.5 25.6249 95.625 25.0208C96.75 24.3958 97.6354 23.5103 98.2812 22.3645C98.9271 21.2187 99.25 19.8749 99.25 18.3333C99.25 16.7708 98.9271 15.4166 98.2812 14.2708C97.6354 13.1041 96.75 12.2083 95.625 11.5833C94.5 10.9374 93.2292 10.6249 91.8125 10.6458Z" fill="#F36427"/>
<path d="M13.8047 79.7083H1.08594V78.677H13.8047V79.7083ZM8.00781 84.5989H6.80469V79.2864H8.00781V84.5989ZM7.41406 71.2708C8.38281 71.2708 9.23698 71.3931 9.97656 71.6379C10.7161 71.8827 11.2891 72.2369 11.6953 72.7004C12.1016 73.164 12.3047 73.7083 12.3047 74.3333C12.3047 74.9374 12.1016 75.4661 11.6953 75.9192C11.2891 76.3723 10.7161 76.7239 9.97656 76.9739C9.23698 77.2239 8.38281 77.3489 7.41406 77.3489C6.44531 77.3489 5.59115 77.2239 4.85156 76.9739C4.11198 76.7239 3.53906 76.3723 3.13281 75.9192C2.72656 75.4661 2.52344 74.9374 2.52344 74.3333C2.52344 73.7083 2.72656 73.164 3.13281 72.7004C3.53906 72.2369 4.11198 71.8827 4.85156 71.6379C5.59115 71.3931 6.44531 71.2708 7.41406 71.2708ZM7.41406 72.2708C6.69531 72.2708 6.0625 72.3541 5.51562 72.5208C4.96875 72.6874 4.54427 72.927 4.24219 73.2395C3.9401 73.552 3.78906 73.9166 3.78906 74.3333C3.78906 74.7395 3.9401 75.0963 4.24219 75.4036C4.54427 75.7109 4.96875 75.9478 5.51562 76.1145C6.0625 76.2812 6.69531 76.3645 7.41406 76.3645C8.13281 76.3645 8.76823 76.2812 9.32031 76.1145C9.8724 75.9478 10.2995 75.7109 10.6016 75.4036C10.9036 75.0963 11.0547 74.7395 11.0547 74.3333C11.0547 73.9166 10.9036 73.552 10.6016 73.2395C10.2995 72.927 9.8724 72.6874 9.32031 72.5208C8.76823 72.3541 8.13281 72.2708 7.41406 72.2708ZM25.8984 84.6301H24.6797V70.7083H25.8984V84.6301ZM16.3984 80.2239C17.6797 80.2239 18.862 80.1874 19.9453 80.1145C21.0286 80.0416 22.1589 79.9114 23.3359 79.7239L23.4609 80.7551C22.263 80.9426 21.1146 81.0728 20.0156 81.1458C18.9167 81.2187 17.7109 81.2551 16.3984 81.2551H15.2422V80.2239H16.3984ZM21.6797 76.9426H16.4922V80.6145H15.2422V75.9426H20.4453V73.0208H15.2109V72.0051H21.6797V76.9426ZM32.3047 71.7239C33.0339 71.7239 33.6797 71.8619 34.2422 72.1379C34.8047 72.414 35.2448 72.7994 35.5625 73.2942C35.8802 73.789 36.0391 74.3541 36.0391 74.9895C36.0391 75.6249 35.8802 76.19 35.5625 76.6848C35.2448 77.1796 34.8047 77.565 34.2422 77.8411C33.6797 78.1171 33.0339 78.2551 32.3047 78.2551C31.5859 78.2551 30.9401 78.1171 30.3672 77.8411C29.7943 77.565 29.349 77.1796 29.0312 76.6848C28.7135 76.19 28.5547 75.6249 28.5547 74.9895C28.5547 74.3541 28.7135 73.789 29.0312 73.2942C29.349 72.7994 29.7943 72.414 30.3672 72.1379C30.9401 71.8619 31.5859 71.7239 32.3047 71.7239ZM32.3047 72.802C31.8151 72.802 31.3776 72.8931 30.9922 73.0754C30.6068 73.2577 30.3047 73.5155 30.0859 73.8489C29.8672 74.1822 29.7578 74.5624 29.7578 74.9895C29.7578 75.4166 29.8672 75.7942 30.0859 76.1223C30.3047 76.4504 30.6068 76.7083 30.9922 76.8958C31.3776 77.0833 31.8151 77.177 32.3047 77.177C32.7943 77.177 33.2318 77.0833 33.6172 76.8958C34.0026 76.7083 34.3021 76.4504 34.5156 76.1223C34.7292 75.7942 34.8359 75.4166 34.8359 74.9895C34.8359 74.5624 34.7292 74.1822 34.5156 73.8489C34.3021 73.5155 34.0026 73.2577 33.6172 73.0754C33.2318 72.8931 32.7943 72.802 32.3047 72.802ZM39.1484 84.6301H37.9297V70.7083H39.1484V84.6301ZM27.8359 80.5208C28.9922 80.5208 30.0417 80.5103 30.9844 80.4895C31.9271 80.4687 32.9297 80.4244 33.9922 80.3567C35.0547 80.289 36.0599 80.1874 37.0078 80.052L37.1016 80.9583C36.1224 81.1353 35.1068 81.2681 34.0547 81.3567C33.0026 81.4452 32.0156 81.5025 31.0938 81.5286C30.1719 81.5546 29.1432 81.5676 28.0078 81.5676L27.8359 80.5208ZM56.0703 80.8801H54.8516V70.7239H56.0703V80.8801ZM56.5078 84.302H47.1016V83.2708H56.5078V84.302ZM48.3203 83.6145H47.1016V79.8489H48.3203V83.6145ZM48.5703 71.6926C49.2578 71.6926 49.8802 71.8359 50.4375 72.1223C50.9948 72.4088 51.4297 72.8124 51.7422 73.3333C52.0547 73.8541 52.2109 74.4426 52.2109 75.0989C52.2109 75.7655 52.0547 76.3567 51.7422 76.8723C51.4297 77.3879 50.9948 77.7916 50.4375 78.0833C49.8802 78.3749 49.2578 78.5208 48.5703 78.5208C47.8828 78.5208 47.263 78.3749 46.7109 78.0833C46.1589 77.7916 45.724 77.3879 45.4062 76.8723C45.0885 76.3567 44.9297 75.7655 44.9297 75.0989C44.9297 74.4426 45.0885 73.8541 45.4062 73.3333C45.724 72.8124 46.1589 72.4088 46.7109 72.1223C47.263 71.8359 47.8828 71.6926 48.5703 71.6926ZM48.5703 72.7708C48.112 72.7708 47.6953 72.8697 47.3203 73.0676C46.9453 73.2655 46.6536 73.5416 46.4453 73.8958C46.237 74.2499 46.1328 74.651 46.1328 75.0989C46.1328 75.5468 46.237 75.9504 46.4453 76.3098C46.6536 76.6692 46.9453 76.9478 47.3203 77.1458C47.6953 77.3437 48.112 77.4426 48.5703 77.4426C49.0286 77.4426 49.4427 77.3437 49.8125 77.1458C50.1823 76.9478 50.474 76.6692 50.6875 76.3098C50.901 75.9504 51.0078 75.5468 51.0078 75.0989C51.0078 74.651 50.901 74.2499 50.6875 73.8958C50.474 73.5416 50.1823 73.2655 49.8125 73.0676C49.4427 72.8697 49.0286 72.7708 48.5703 72.7708ZM68.6328 73.9114H64.4141V72.8958H68.6328V73.9114ZM68.6328 77.2395H64.4141V76.2239H68.6328V77.2395ZM69.4453 80.9895H68.2109V70.7239H69.4453V80.9895ZM69.8359 84.302H60.5234V83.2708H69.8359V84.302ZM61.7578 83.6926H60.5234V79.9114H61.7578V83.6926ZM61.7578 71.5989C62.4349 71.5989 63.0443 71.7499 63.5859 72.052C64.1276 72.3541 64.5573 72.7681 64.875 73.2942C65.1927 73.8202 65.3516 74.4166 65.3516 75.0833C65.3516 75.7499 65.1927 76.3463 64.875 76.8723C64.5573 77.3984 64.1276 77.8098 63.5859 78.1067C63.0443 78.4036 62.4349 78.552 61.7578 78.552C61.0703 78.552 60.4531 78.4036 59.9062 78.1067C59.3594 77.8098 58.9297 77.3984 58.6172 76.8723C58.3047 76.3463 58.1484 75.7499 58.1484 75.0833C58.1484 74.4166 58.3047 73.8176 58.6172 73.2864C58.9297 72.7551 59.3594 72.3411 59.9062 72.0442C60.4531 71.7473 61.0703 71.5989 61.7578 71.5989ZM61.7578 72.6926C61.2891 72.6926 60.8698 72.7968 60.5 73.0051C60.1302 73.2135 59.8411 73.4973 59.6328 73.8567C59.4245 74.2161 59.3203 74.6249 59.3203 75.0833C59.3203 75.5416 59.4245 75.9504 59.6328 76.3098C59.8411 76.6692 60.1302 76.9504 60.5 77.1536C60.8698 77.3567 61.2891 77.4583 61.7578 77.4583C62.2057 77.4583 62.6146 77.3567 62.9844 77.1536C63.3542 76.9504 63.6432 76.6666 63.8516 76.302C64.0599 75.9374 64.1641 75.5312 64.1641 75.0833C64.1641 74.6249 64.0599 74.2161 63.8516 73.8567C63.6432 73.4973 63.3542 73.2135 62.9844 73.0051C62.6146 72.7968 62.2057 72.6926 61.7578 72.6926ZM72.3203 86.5364H71.1641L72.0234 82.2864H73.5391L72.3203 86.5364ZM91.0703 79.7083H78.3516V78.677H91.0703V79.7083ZM85.2734 84.5989H84.0703V79.2864H85.2734V84.5989ZM84.6797 71.2708C85.6484 71.2708 86.5026 71.3931 87.2422 71.6379C87.9818 71.8827 88.5547 72.2369 88.9609 72.7004C89.3672 73.164 89.5703 73.7083 89.5703 74.3333C89.5703 74.9374 89.3672 75.4661 88.9609 75.9192C88.5547 76.3723 87.9818 76.7239 87.2422 76.9739C86.5026 77.2239 85.6484 77.3489 84.6797 77.3489C83.7109 77.3489 82.8568 77.2239 82.1172 76.9739C81.3776 76.7239 80.8047 76.3723 80.3984 75.9192C79.9922 75.4661 79.7891 74.9374 79.7891 74.3333C79.7891 73.7083 79.9922 73.164 80.3984 72.7004C80.8047 72.2369 81.3776 71.8827 82.1172 71.6379C82.8568 71.3931 83.7109 71.2708 84.6797 71.2708ZM84.6797 72.2708C83.9609 72.2708 83.3281 72.3541 82.7812 72.5208C82.2344 72.6874 81.8099 72.927 81.5078 73.2395C81.2057 73.552 81.0547 73.9166 81.0547 74.3333C81.0547 74.7395 81.2057 75.0963 81.5078 75.4036C81.8099 75.7109 82.2344 75.9478 82.7812 76.1145C83.3281 76.2812 83.9609 76.3645 84.6797 76.3645C85.3984 76.3645 86.0339 76.2812 86.5859 76.1145C87.138 75.9478 87.5651 75.7109 87.8672 75.4036C88.1693 75.0963 88.3203 74.7395 88.3203 74.3333C88.3203 73.9166 88.1693 73.552 87.8672 73.2395C87.5651 72.927 87.138 72.6874 86.5859 72.5208C86.0339 72.3541 85.3984 72.2708 84.6797 72.2708ZM102.352 75.3489H99.1797V74.3333H102.352V75.3489ZM103.211 78.9895H101.977V70.7083H103.211V78.9895ZM98.6016 79.427C99.5703 79.427 100.404 79.5286 101.102 79.7317C101.799 79.9348 102.333 80.2291 102.703 80.6145C103.073 80.9999 103.258 81.4635 103.258 82.0051C103.258 82.5468 103.073 83.0103 102.703 83.3958C102.333 83.7812 101.799 84.0754 101.102 84.2786C100.404 84.4817 99.5703 84.5885 98.6016 84.5989C97.6432 84.5885 96.8151 84.4817 96.1172 84.2786C95.4193 84.0754 94.8828 83.7812 94.5078 83.3958C94.1328 83.0103 93.9453 82.5468 93.9453 82.0051C93.9453 81.4635 94.1328 80.9999 94.5078 80.6145C94.8828 80.2291 95.4193 79.9348 96.1172 79.7317C96.8151 79.5286 97.6432 79.427 98.6016 79.427ZM98.6016 80.3801C97.9036 80.3801 97.2943 80.4452 96.7734 80.5754C96.2526 80.7056 95.8542 80.8931 95.5781 81.1379C95.3021 81.3827 95.1641 81.6718 95.1641 82.0051C95.1641 82.328 95.3021 82.6119 95.5781 82.8567C95.8542 83.1015 96.2526 83.289 96.7734 83.4192C97.2943 83.5494 97.9036 83.6145 98.6016 83.6145C99.3099 83.6145 99.9219 83.5494 100.438 83.4192C100.953 83.289 101.349 83.1015 101.625 82.8567C101.901 82.6119 102.039 82.328 102.039 82.0051C102.039 81.6718 101.901 81.3827 101.625 81.1379C101.349 80.8931 100.953 80.7056 100.438 80.5754C99.9219 80.4452 99.3099 80.3801 98.6016 80.3801ZM96.3047 73.2708C96.3047 74.1041 96.138 74.8931 95.8047 75.6379C95.4714 76.3827 95.0104 77.0338 94.4219 77.5911C93.8333 78.1484 93.1589 78.5728 92.3984 78.8645L91.7578 77.8801C92.4453 77.6301 93.0573 77.2681 93.5938 76.7942C94.1302 76.3202 94.5469 75.776 94.8438 75.1614C95.1406 74.5468 95.2891 73.9166 95.2891 73.2708V72.1145H96.3047V73.2708ZM96.5234 73.2551C96.5234 73.8489 96.6667 74.427 96.9531 74.9895C97.2396 75.552 97.6432 76.0494 98.1641 76.4817C98.6849 76.914 99.2786 77.2499 99.9453 77.4895L99.3047 78.4739C98.5547 78.203 97.8958 77.8046 97.3281 77.2786C96.7604 76.7525 96.3177 76.1405 96 75.4426C95.6823 74.7447 95.5234 74.0155 95.5234 73.2551V72.1145H96.5234V73.2551ZM99.6328 72.7551H92.1484V71.7239H99.6328V72.7551ZM112.008 73.2551H105.664V72.2551H112.008V73.2551ZM109.086 80.927H107.883V76.2239H109.086V80.927ZM112.727 72.9739C112.716 73.6301 112.706 74.1744 112.695 74.6067C112.685 75.039 112.651 75.5963 112.594 76.2786C112.536 76.9609 112.445 77.6978 112.32 78.4895L111.086 78.3801C111.263 77.276 111.375 76.3098 111.422 75.4817C111.469 74.6536 111.492 73.8176 111.492 72.9739V72.2551H112.727V72.9739ZM115.742 84.5989H114.523V70.7083H115.742V84.5989ZM117.992 77.5833H115.414V76.5208H117.992V77.5833ZM104.883 80.5208C106.57 80.5103 108.135 80.4765 109.578 80.4192C111.021 80.3619 112.378 80.2603 113.648 80.1145L113.711 81.0364C112.398 81.2343 111.008 81.3697 109.539 81.4426C108.07 81.5155 106.57 81.5468 105.039 81.5364L104.883 80.5208ZM132.57 73.9114H128.352V72.8958H132.57V73.9114ZM132.57 77.2395H128.352V76.2239H132.57V77.2395ZM133.383 80.9895H132.148V70.7239H133.383V80.9895ZM133.773 84.302H124.461V83.2708H133.773V84.302ZM125.695 83.6926H124.461V79.9114H125.695V83.6926ZM125.695 71.5989C126.372 71.5989 126.982 71.7499 127.523 72.052C128.065 72.3541 128.495 72.7681 128.812 73.2942C129.13 73.8202 129.289 74.4166 129.289 75.0833C129.289 75.7499 129.13 76.3463 128.812 76.8723C128.495 77.3984 128.065 77.8098 127.523 78.1067C126.982 78.4036 126.372 78.552 125.695 78.552C125.008 78.552 124.391 78.4036 123.844 78.1067C123.297 77.8098 122.867 77.3984 122.555 76.8723C122.242 76.3463 122.086 75.7499 122.086 75.0833C122.086 74.4166 122.242 73.8176 122.555 73.2864C122.867 72.7551 123.297 72.3411 123.844 72.0442C124.391 71.7473 125.008 71.5989 125.695 71.5989ZM125.695 72.6926C125.227 72.6926 124.807 72.7968 124.438 73.0051C124.068 73.2135 123.779 73.4973 123.57 73.8567C123.362 74.2161 123.258 74.6249 123.258 75.0833C123.258 75.5416 123.362 75.9504 123.57 76.3098C123.779 76.6692 124.068 76.9504 124.438 77.1536C124.807 77.3567 125.227 77.4583 125.695 77.4583C126.143 77.4583 126.552 77.3567 126.922 77.1536C127.292 76.9504 127.581 76.6666 127.789 76.302C127.997 75.9374 128.102 75.5312 128.102 75.0833C128.102 74.6249 127.997 74.2161 127.789 73.8567C127.581 73.4973 127.292 73.2135 126.922 73.0051C126.552 72.7968 126.143 72.6926 125.695 72.6926ZM138.352 71.8801C138.956 71.8801 139.482 72.0754 139.93 72.4661C140.378 72.8567 140.727 73.4166 140.977 74.1458C141.227 74.8749 141.352 75.7291 141.352 76.7083C141.352 77.677 141.227 78.526 140.977 79.2551C140.727 79.9843 140.378 80.5468 139.93 80.9426C139.482 81.3385 138.956 81.5364 138.352 81.5364C137.758 81.5364 137.234 81.3385 136.781 80.9426C136.328 80.5468 135.979 79.9843 135.734 79.2551C135.49 78.526 135.367 77.677 135.367 76.7083C135.367 75.7291 135.49 74.8749 135.734 74.1458C135.979 73.4166 136.328 72.8567 136.781 72.4661C137.234 72.0754 137.758 71.8801 138.352 71.8801ZM138.352 73.0364C137.977 73.0364 137.651 73.1848 137.375 73.4817C137.099 73.7786 136.888 74.203 136.742 74.7551C136.596 75.3072 136.523 75.9583 136.523 76.7083C136.523 77.4478 136.596 78.0937 136.742 78.6458C136.888 79.1978 137.102 79.6223 137.383 79.9192C137.664 80.2161 137.987 80.3645 138.352 80.3645C138.727 80.3645 139.052 80.2161 139.328 79.9192C139.604 79.6223 139.818 79.1978 139.969 78.6458C140.12 78.0937 140.195 77.4478 140.195 76.7083C140.195 75.9583 140.12 75.3072 139.969 74.7551C139.818 74.203 139.604 73.7786 139.328 73.4817C139.052 73.1848 138.727 73.0364 138.352 73.0364ZM147.102 84.5989H145.914V70.7083H147.102V84.5989ZM146.367 77.2395H143.648V76.2239H146.367V77.2395ZM143.977 83.8958H142.805V71.0051H143.977V83.8958Z" fill="#9E9E9E"/>
</svg>
