<svg width="117" height="89" viewBox="0 0 117 89" fill="none" xmlns="http://www.w3.org/2000/svg">
<path d="M19.1553 25.6293C15.3793 23.6453 14.4193 20.4453 14.8673 17.1813C15.6353 11.2933 20.6273 5.53325 26.9633 2.14125C29.9713 0.477249 33.8753 1.18125 37.2673 3.42125C41.6193 6.30125 43.9233 10.7812 43.9233 14.0452C43.9233 18.6532 41.9393 22.1093 36.6273 24.7333C31.3153 27.2933 23.8273 28.0613 19.1553 25.6293ZM4.62725 34.7173C13.9073 33.1173 39.8273 31.6453 49.8113 32.0293C53.3953 32.1573 54.4193 32.6053 54.4833 34.7173C54.5473 36.0613 53.9073 36.5093 52.8193 36.6373C47.5073 37.1493 40.7873 37.7253 33.7473 38.4293C31.6993 49.3093 31.2513 51.3573 30.0353 55.3893C29.7793 56.2213 28.6913 56.7973 26.6433 56.7333C24.9153 56.6053 23.7633 56.6053 23.8273 55.0693C24.1473 49.5653 24.4673 44.5733 24.8513 39.3893C19.1553 40.0933 13.6513 40.7973 8.91525 41.6933C7.25125 42.0133 5.58725 42.2693 4.81925 40.8613C2.51525 36.5733 1.87525 35.2293 4.62725 34.7173ZM21.5873 18.8453C20.8193 20.8293 21.4593 22.3653 23.7633 22.3653C26.3873 22.3653 29.6513 21.5333 31.9553 19.4853C34.7073 17.1813 36.1153 12.2533 33.2353 9.37325C32.5312 8.73325 31.3153 8.60525 30.2913 9.11725C26.3233 11.3573 23.1233 14.9412 21.5873 18.8453ZM62.7753 30.7493C59.1913 28.6373 58.3593 25.1173 58.6793 21.9172C59.3833 15.3252 63.7993 10.5252 69.9433 6.55725C71.8633 5.27725 76.7273 5.72525 79.5433 7.96525C80.5673 8.73325 81.5273 9.62925 82.2953 10.5892C81.7193 8.92525 81.9753 8.28525 82.4873 8.09325C87.4793 6.36525 91.3193 5.85325 93.6873 5.85325C96.3753 5.78925 101.751 5.91725 104.951 8.15725C105.079 6.17325 104.951 3.03725 104.887 2.33325C104.631 0.861248 105.271 0.98925 105.975 0.98925C107.959 1.05325 110.647 1.50125 112.183 2.33325C113.655 3.10125 113.591 3.86925 113.463 6.42925C113.271 13.3413 109.687 30.3013 106.807 38.5573C106.039 40.8613 104.759 40.0933 103.351 39.7093C101.303 39.2613 100.343 38.5573 100.215 37.5333C100.023 35.2293 100.855 30.4293 101.495 27.4853L101.751 26.2693C101.047 26.8453 100.023 27.2933 98.8073 27.6773C95.0953 28.9573 89.6553 29.5973 86.5833 29.8533C85.3033 30.0453 84.2793 29.7253 84.0873 27.0373C84.0233 26.4613 83.9593 25.8853 83.9593 25.4373C82.8713 26.9733 81.2713 28.2533 78.9673 29.5973C74.1033 32.4773 67.2553 33.5013 62.7753 30.7493ZM64.9513 23.7733C64.3113 25.9493 65.0793 27.2933 66.7433 27.3573C69.1753 27.4213 72.5033 26.3973 74.6793 24.4132C77.1113 22.0452 78.1993 16.9253 75.7673 14.0452C75.0633 13.2132 73.9753 13.3413 73.0793 13.8532C70.0713 15.5812 66.0393 20.1893 64.9513 23.7733ZM84.7273 47.3893C84.2153 43.2293 84.4713 40.4773 84.9193 37.9173C85.3033 35.6773 86.7113 35.8693 90.1673 36.6373C92.9833 37.2773 94.3913 38.0453 93.7513 40.0933C93.3673 41.3093 92.8553 43.5493 92.6632 44.8933C92.2153 47.8373 93.9433 49.2453 98.0393 48.3493C101.431 47.5813 104.631 46.3653 108.343 44.3173C108.919 43.9973 109.495 44.4453 108.983 45.4053C107.895 47.4533 104.183 50.9093 101.815 52.5093C95.1593 56.9253 85.6233 54.6213 84.7273 47.3893ZM84.7913 14.5573C85.4313 16.0293 85.7513 17.5013 85.7513 18.7812C85.7513 20.1252 85.6233 21.3413 85.3673 22.3653C89.9753 22.0452 101.047 21.3413 103.287 19.0373C103.671 16.7332 104.119 14.4933 104.439 12.1893C98.7433 12.2533 92.2793 13.0853 87.6713 14.4292C86.3273 14.8133 85.4313 14.8133 84.7913 14.5573Z" fill="#EC407A"/>
<path d="M34.5068 74.1573C34.6988 74.0719 34.9014 74.0666 35.1148 74.1413C35.2428 74.1839 35.3974 74.2106 35.5788 74.2213C36.0588 74.2639 36.4321 74.4239 36.6988 74.7013C36.9761 74.9679 37.1254 75.2826 37.1468 75.6453C37.1681 75.9973 37.0561 76.3759 36.8108 76.7813C36.5761 77.1866 36.2294 77.5279 35.7708 77.8053C35.2268 78.1466 34.7894 78.3599 34.4588 78.4453C34.1388 78.5199 33.8721 78.4826 33.6588 78.3333C33.5201 78.2373 33.4241 78.1413 33.3708 78.0453C33.3281 77.9493 33.2641 77.7359 33.1788 77.4053L33.0188 76.8133L33.1628 76.2693C33.2801 75.7893 33.4668 75.3466 33.7228 74.9413C33.9788 74.5359 34.2401 74.2746 34.5068 74.1573ZM35.7068 75.4693C35.5468 75.3946 35.3441 75.3679 35.0988 75.3893C34.9281 75.4213 34.7948 75.5546 34.6988 75.7893C34.6241 75.9599 34.5654 76.0986 34.5228 76.2053C34.4374 76.3866 34.3948 76.5733 34.3948 76.7653C34.3948 77.0213 34.4321 77.1599 34.5068 77.1813C34.5921 77.2026 34.7681 77.1226 35.0348 76.9413C35.4828 76.6426 35.7708 76.3546 35.8988 76.0773C36.0268 75.7999 35.9628 75.5973 35.7068 75.4693ZM38.7148 79.3253C38.9601 79.2826 39.1521 79.3093 39.2908 79.4053C39.4294 79.4906 39.4988 79.6346 39.4988 79.8373C39.4988 80.0293 39.3974 80.1893 39.1948 80.3173C39.0028 80.4453 38.6348 80.5893 38.0908 80.7493C37.5574 80.8986 37.2001 81.0213 37.0188 81.1173C36.8481 81.2133 36.7414 81.3466 36.6988 81.5173C36.5068 82.5306 36.4001 83.3306 36.3788 83.9173C36.3574 84.2266 36.3361 84.4133 36.3148 84.4773C36.3041 84.5413 36.2561 84.6159 36.1708 84.7013C35.8508 84.9999 35.5361 85.0159 35.2268 84.7493C35.1414 84.6639 35.0988 84.5093 35.0988 84.2853C35.0988 84.0613 35.1468 83.5599 35.2428 82.7813C35.3281 82.0773 35.3388 81.7093 35.2748 81.6773C35.2321 81.6559 35.0241 81.7039 34.6508 81.8213C34.4481 81.8853 34.1654 81.9706 33.8028 82.0773C33.4828 82.1839 33.2908 82.2479 33.2268 82.2693C31.4348 82.8453 30.5654 82.7813 30.6188 82.0773C30.6188 82.0453 30.6241 82.0133 30.6348 81.9813C30.6668 81.7893 30.7308 81.6613 30.8268 81.5973C30.9334 81.5333 31.1468 81.4853 31.4668 81.4533C31.7334 81.4213 31.9361 81.3946 32.0748 81.3733C32.0961 81.3626 32.1494 81.3466 32.2348 81.3253C32.3308 81.3039 32.3948 81.2879 32.4268 81.2773C32.5654 81.2453 32.7521 81.1919 32.9868 81.1173C33.3814 80.9893 33.6961 80.8933 33.9308 80.8293C34.1974 80.7439 34.4801 80.6586 34.7788 80.5733C35.0774 80.4879 35.2534 80.4399 35.3068 80.4293C36.0854 80.2373 37.0934 79.9066 38.3308 79.4373C38.4481 79.3946 38.5761 79.3573 38.7148 79.3253ZM49.1983 75.4533C49.3369 75.3893 49.4809 75.3893 49.6303 75.4533C49.7796 75.5066 49.8916 75.6079 49.9663 75.7573C50.0623 75.9386 50.1316 76.3333 50.1743 76.9413C50.2169 77.5386 50.2169 78.0773 50.1743 78.5573C50.0463 79.8373 49.9823 80.6959 49.9823 81.1333C49.9823 81.4106 49.9663 81.6026 49.9343 81.7093C49.9023 81.8159 49.8329 81.9173 49.7263 82.0133C49.5129 82.1946 49.2783 82.2533 49.0223 82.1893C48.7663 82.1253 48.5903 81.9866 48.4943 81.7733C48.3983 81.5599 48.3983 81.3146 48.4943 81.0373C48.6649 80.7066 48.7983 79.9653 48.8943 78.8133C49.0009 77.6506 48.9956 76.8826 48.8783 76.5093C48.7183 75.9653 48.8249 75.6133 49.1983 75.4533ZM43.4223 75.9813C43.8703 75.8639 44.1636 75.9333 44.3023 76.1893C44.4089 76.4026 44.4943 76.7653 44.5583 77.2773C44.6223 77.7893 44.6383 78.2106 44.6063 78.5413C44.5529 79.0319 44.4356 79.3839 44.2543 79.5973C44.0836 79.8106 43.6623 80.1093 42.9903 80.4933C42.7663 80.6106 42.6223 80.7226 42.5583 80.8293C42.4943 80.9359 42.4569 81.1173 42.4463 81.3733C42.4249 81.8106 42.4836 82.0346 42.6223 82.0453C42.7609 82.0559 43.1023 81.8746 43.6463 81.5013C44.1369 81.1706 44.6436 80.8879 45.1663 80.6533C45.6996 80.4079 46.0943 80.2853 46.3503 80.2853C46.5743 80.2853 46.7183 80.3706 46.7823 80.5413C46.8569 80.7119 46.8089 80.8666 46.6383 81.0053C46.3503 81.2719 46.0943 81.4639 45.8703 81.5813C45.3796 81.8479 44.7876 82.1946 44.0943 82.6213C43.2196 83.1653 42.6276 83.4693 42.3183 83.5333C42.0089 83.5973 41.7796 83.4639 41.6303 83.1333C41.3956 82.6213 41.2623 82.0933 41.2303 81.5493C41.1983 80.9946 41.2729 80.5839 41.4543 80.3173C41.6569 80.0186 42.2383 79.6186 43.1983 79.1173C43.2943 79.0639 43.3476 78.9999 43.3583 78.9253C43.3796 78.8399 43.3796 78.6213 43.3583 78.2693C43.3583 78.2479 43.3583 78.2159 43.3583 78.1733C43.3156 77.6079 43.2676 77.2879 43.2143 77.2133C43.1609 77.1386 42.9956 77.1706 42.7183 77.3093C42.6969 77.3199 42.6809 77.3253 42.6703 77.3253C42.4249 77.4319 42.2809 77.4853 42.2383 77.4853C42.2063 77.4853 42.1849 77.5013 42.1743 77.5333C42.1636 77.5546 42.1156 77.5706 42.0303 77.5813C41.9769 77.5919 41.8916 77.6133 41.7743 77.6453C41.4436 77.7413 41.1023 77.8159 40.7503 77.8693C40.3983 77.9119 40.1796 77.9119 40.0943 77.8693C39.9343 77.7839 39.8383 77.6559 39.8063 77.4853C39.7849 77.3146 39.8223 77.1653 39.9183 77.0373C40.0249 76.8986 40.1689 76.8293 40.3503 76.8293C40.4783 76.8293 40.5903 76.8133 40.6863 76.7813C40.8356 76.7493 40.9689 76.7226 41.0863 76.7013C41.6303 76.5946 42.1796 76.4346 42.7343 76.2213C43.0009 76.1146 43.2303 76.0346 43.4223 75.9813ZM58.6361 74.5253C58.7108 74.4719 58.8068 74.4506 58.9241 74.4613C59.0415 74.4719 59.1428 74.5093 59.2281 74.5733C59.4841 74.7866 59.6335 75.2879 59.6761 76.0773C59.7295 76.8559 59.6815 78.0079 59.5321 79.5333C59.4895 79.8959 59.4308 80.6266 59.3561 81.7253C59.3348 82.1839 59.3188 82.6106 59.3081 83.0053C59.2868 83.4959 59.2068 83.8853 59.0681 84.1733C58.9295 84.4613 58.7481 84.5999 58.5241 84.5893C58.2681 84.5786 58.1081 84.4346 58.0441 84.1573C57.9801 83.8693 57.9748 83.2773 58.0281 82.3813C58.0601 81.7626 58.0495 81.4533 57.9961 81.4533C57.9748 81.4533 57.9161 81.4906 57.8201 81.5653C57.6921 81.6826 57.3455 81.8693 56.7801 82.1253C56.7375 82.1466 56.6575 82.1839 56.5401 82.2373C56.4335 82.2799 56.3748 82.3013 56.3641 82.3013C56.2148 82.3759 56.1241 82.4133 56.0921 82.4133C56.0601 82.4133 56.0335 82.4239 56.0121 82.4453C55.9375 82.5093 55.3561 82.7226 54.2681 83.0853C53.9161 83.2026 53.5001 83.3253 53.0201 83.4533C52.5721 83.5706 52.1828 83.6186 51.8521 83.5973C51.5321 83.5759 51.3401 83.4853 51.2761 83.3253C51.2441 83.2506 51.2281 83.1599 51.2281 83.0533C51.2281 82.9359 51.2441 82.8506 51.2761 82.7973C51.3721 82.6159 51.7615 82.4879 52.4441 82.4133C53.0521 82.3493 53.9428 82.0933 55.1161 81.6453C55.1481 81.6239 55.2121 81.5973 55.3081 81.5653C55.4148 81.5226 55.4895 81.4959 55.5321 81.4853C55.5748 81.4639 55.6335 81.4426 55.7081 81.4213C55.7828 81.3893 55.8255 81.3733 55.8361 81.3733C55.8788 81.3519 55.9908 81.3093 56.1721 81.2453C56.3108 81.1919 56.5081 81.1066 56.7641 80.9893C57.0628 80.8506 57.2761 80.7706 57.4041 80.7493C57.5428 80.7173 57.6815 80.7226 57.8201 80.7653C57.9801 80.8079 58.0761 80.7973 58.1081 80.7333C58.1401 80.6693 58.1828 80.4026 58.2361 79.9333C58.2681 79.6346 58.2948 79.3946 58.3161 79.2133C58.3801 78.6906 58.4175 78.1786 58.4281 77.6773C58.4388 77.1759 58.4228 76.3386 58.3801 75.1653C58.3801 74.8453 58.4655 74.6319 58.6361 74.5253ZM53.6281 76.1413C53.7028 76.0986 53.8041 76.0773 53.9321 76.0773C54.0601 76.0773 54.3481 76.1359 54.7961 76.2533C55.3188 76.3919 55.6388 76.6213 55.7561 76.9413C56.0441 77.7839 55.7295 78.5679 54.8121 79.2933C54.0761 79.8799 53.4735 80.0666 53.0041 79.8533C52.7801 79.7466 52.6361 79.6346 52.5721 79.5173C52.5081 79.3999 52.4388 79.1279 52.3641 78.7013C52.3215 78.4453 52.3001 78.2639 52.3001 78.1573C52.3108 78.0399 52.3588 77.8693 52.4441 77.6453C52.5401 77.3573 52.7108 77.0533 52.9561 76.7333C53.2121 76.4133 53.4361 76.2159 53.6281 76.1413ZM54.4281 77.2453C54.2788 77.1599 54.1561 77.1493 54.0601 77.2133C53.9641 77.2666 53.8788 77.3999 53.8041 77.6133C53.7295 77.8159 53.6761 77.9493 53.6441 78.0133C53.4735 78.3439 53.4628 78.5573 53.6121 78.6533C53.6975 78.7066 53.8095 78.6746 53.9481 78.5573C54.0121 78.5039 54.1455 78.4026 54.3481 78.2533C54.5508 78.0826 54.6841 77.8639 54.7481 77.5973C54.7801 77.4799 54.6735 77.3626 54.4281 77.2453ZM72.305 74.3173C72.4543 74.2319 72.6197 74.2213 72.801 74.2853C72.993 74.3493 73.1157 74.4559 73.169 74.6053C73.2223 74.7546 73.233 75.6773 73.201 77.3733C73.1797 79.0693 73.137 80.0293 73.073 80.2533C73.0517 80.3599 72.9823 80.5039 72.865 80.6853C72.7477 80.8559 72.657 80.9573 72.593 80.9893C72.5397 81.0213 72.449 81.0106 72.321 80.9573C72.193 80.9039 72.1023 80.8399 72.049 80.7653C71.9743 80.6479 71.9583 79.1119 72.001 76.1573C72.0117 75.3253 72.0277 74.8346 72.049 74.6853C72.081 74.5253 72.1663 74.4079 72.305 74.3333C72.305 74.3226 72.305 74.3173 72.305 74.3173ZM66.737 76.3813C66.993 76.3173 67.201 76.3119 67.361 76.3653C67.4463 76.3973 67.601 76.4239 67.825 76.4453C68.241 76.4879 68.625 76.6906 68.977 77.0533C69.2757 77.3519 69.4197 77.6399 69.409 77.9173C69.409 78.1946 69.2437 78.5519 68.913 78.9893C68.657 79.3413 68.1983 79.7199 67.537 80.1253C66.8757 80.5306 66.4063 80.7173 66.129 80.6853C65.649 80.6426 65.3237 80.4079 65.153 79.9813C64.9823 79.5546 64.9823 78.9999 65.153 78.3173C65.313 77.7413 65.5103 77.3039 65.745 77.0053C65.9903 76.7066 66.321 76.4986 66.737 76.3813ZM67.505 77.3893C67.3237 77.3466 67.2223 77.3253 67.201 77.3253C66.9877 77.3679 66.817 77.4693 66.689 77.6293C66.5717 77.7786 66.449 78.0399 66.321 78.4133C66.2357 78.6906 66.2037 78.9626 66.225 79.2293C66.2463 79.4853 66.3157 79.6133 66.433 79.6133C66.4757 79.6133 66.609 79.5599 66.833 79.4533C67.057 79.3359 67.249 79.2186 67.409 79.1013C68.017 78.6959 68.3263 78.3386 68.337 78.0293C68.3583 77.7199 68.081 77.5066 67.505 77.3893ZM70.369 81.3093C70.9343 81.1279 71.2437 81.4213 71.297 82.1893C71.3503 82.9573 71.4037 83.3679 71.457 83.4213C71.4997 83.4639 71.6863 83.3946 72.017 83.2133C72.177 83.1279 72.4277 82.9999 72.769 82.8293C73.1637 82.6159 73.3717 82.5039 73.393 82.4933C73.5103 82.4079 73.649 82.3759 73.809 82.3973C73.9797 82.4079 74.0917 82.4666 74.145 82.5733C74.2517 82.7759 74.1717 83.0053 73.905 83.2613C73.649 83.5066 73.1797 83.8106 72.497 84.1733C72.3477 84.2479 72.2037 84.3279 72.065 84.4133C71.681 84.6266 71.3717 84.7546 71.137 84.7973C70.8383 84.8399 70.6197 84.7813 70.481 84.6213C70.353 84.4613 70.2197 84.0933 70.081 83.5173C69.9957 83.1759 69.953 82.7919 69.953 82.3653C69.953 81.9706 69.9743 81.7146 70.017 81.5973C70.0703 81.4693 70.1877 81.3733 70.369 81.3093ZM83.9165 74.3173C84.2792 74.2213 84.5138 74.3226 84.6205 74.6213C84.7378 74.9093 84.7858 75.5386 84.7645 76.5093C84.7538 76.6053 84.7272 77.3999 84.6845 78.8933C84.6632 79.8533 84.6312 80.4293 84.5885 80.6213C84.5565 80.8133 84.4498 81.0106 84.2685 81.2133C84.1512 81.3306 84.0712 81.3999 84.0285 81.4213C83.9965 81.4426 83.9272 81.4533 83.8205 81.4533C83.7245 81.4533 83.6498 81.4479 83.5965 81.4373C83.5432 81.4266 83.4898 81.3999 83.4365 81.3573C83.3938 81.3039 83.3618 81.2453 83.3405 81.1813C83.3298 81.1066 83.3192 80.9946 83.3085 80.8453C83.2978 80.6959 83.2925 80.5359 83.2925 80.3653C83.3032 80.1839 83.3192 79.9439 83.3405 79.6453C83.3512 79.3573 83.3512 79.1866 83.3405 79.1333C83.3405 79.0693 83.3245 79.0373 83.2925 79.0373C83.2285 79.0373 82.7165 79.2186 81.7565 79.5813C80.7645 79.9439 80.2258 79.9333 80.1405 79.5493C80.0978 79.3573 80.1405 79.2133 80.2685 79.1173C80.4072 79.0213 80.7805 78.8613 81.3885 78.6373C81.4098 78.6266 81.4418 78.6159 81.4845 78.6053C82.4552 78.2319 83.0205 77.9813 83.1805 77.8533C83.3512 77.7253 83.4365 77.4586 83.4365 77.0533C83.4365 77.0319 83.4365 77.0159 83.4365 77.0053C83.4365 76.7173 83.4045 76.5626 83.3405 76.5413C83.2658 76.5199 82.9885 76.6266 82.5085 76.8613C82.0712 77.0746 81.7565 77.2239 81.5645 77.3093C81.5112 77.3306 81.4365 77.3626 81.3405 77.4053C81.2445 77.4479 81.1858 77.4693 81.1645 77.4693C81.0365 77.5226 80.8285 77.5973 80.5405 77.6933C80.2632 77.7786 80.0818 77.8639 79.9965 77.9493C79.9218 78.0239 79.8685 78.1679 79.8365 78.3813C79.7832 78.7013 79.6338 79.0053 79.3885 79.2933C79.1432 79.5813 78.7432 79.9066 78.1885 80.2693C77.4418 80.7813 76.9992 81.0373 76.8605 81.0373C76.8392 81.0373 76.7645 81.0639 76.6365 81.1173C76.3592 81.2666 76.0818 81.2453 75.8045 81.0533C75.5378 80.8613 75.3618 80.5946 75.2765 80.2533C75.1912 79.9119 75.2125 79.5546 75.3405 79.1813C75.3832 79.0746 75.4525 78.8986 75.5485 78.6533C75.8152 77.9813 76.0072 77.5226 76.1245 77.2773C76.2525 77.0319 76.3965 76.8239 76.5565 76.6533C77.1112 76.0666 77.5645 75.9173 77.9165 76.2053C78.0018 76.2799 78.1245 76.3333 78.2845 76.3653C78.5085 76.4079 78.8125 76.6053 79.1965 76.9573C79.4098 77.1386 79.5592 77.2346 79.6445 77.2453C79.7405 77.2453 79.8685 77.1599 80.0285 76.9893C80.1565 76.8506 80.4392 76.6746 80.8765 76.4613C81.3138 76.2479 81.8045 76.0506 82.3485 75.8693C82.8392 75.6986 83.1432 75.5706 83.2605 75.4853C83.3778 75.3999 83.4525 75.2559 83.4845 75.0533C83.5378 74.6159 83.6818 74.3706 83.9165 74.3173ZM78.0125 77.4053C77.7565 77.3626 77.6018 77.3413 77.5485 77.3413C77.4952 77.3413 77.4365 77.3679 77.3725 77.4213C77.1378 77.6133 76.9192 78.0613 76.7165 78.7653C76.5138 79.4586 76.4818 79.8746 76.6205 80.0133C76.6738 80.0559 76.7378 80.0613 76.8125 80.0293C76.8978 79.9973 77.0792 79.8906 77.3565 79.7093C77.8472 79.3679 78.1298 79.1653 78.2045 79.1013C78.2898 79.0373 78.3912 78.8933 78.5085 78.6693C78.8925 77.9546 78.7272 77.5333 78.0125 77.4053ZM81.9325 81.2933C82.1565 81.1866 82.3592 81.2186 82.5405 81.3893C82.7218 81.5599 82.8125 81.8053 82.8125 82.1253C82.8125 82.5519 82.8552 82.9093 82.9405 83.1973C82.9938 83.3999 83.4365 83.2559 84.2685 82.7653C85.1645 82.2319 85.6232 82.1946 85.6445 82.6533C85.6552 82.6639 85.6605 82.6799 85.6605 82.7013C85.6498 82.9039 85.4952 83.1279 85.1965 83.3733C84.8978 83.6186 84.4125 83.9173 83.7405 84.2693C83.0045 84.6426 82.5032 84.7866 82.2365 84.7013C81.9805 84.6266 81.8045 84.2639 81.7085 83.6133C81.6872 83.4853 81.6552 83.3519 81.6125 83.2133C81.5698 83.0853 81.5432 82.8399 81.5325 82.4773C81.5218 82.0826 81.5432 81.8053 81.5965 81.6453C81.6498 81.4853 81.7618 81.3679 81.9325 81.2933Z" fill="#9E9E9E"/>
</svg>
